PathFileType	4	(X/Y/Z)	/Users/itak/Documents/Research/Walk-IL/dataset/trc/00545_00009.trc
DataRate	CameraRate	NumFrames	NumMarkers	Units	OrigDataRate	OrigDataStartFrame	OrigNumFrames
100.000000	100.000000	4	54	mm	100.000000	220	587
Frame#	Time	RPSI			LPSI			L3			STRN			T10			C7			CLAV			RBAK			LBAK			LSHO			LUPA			LAEL			LAOL			LWTS			LWPS			LFRA			LHPS			LHTS			RSHO			RUPA			RAEL			RAOL			RWTS			RWPS			RFRA			RIFD			RHTS			RHPS			RBHD			LFHD			RFHD			LBHD			LHIP			RHIP			RASI			LASI			LKNE			LTHI			LANK			LTIP			LTOE			LMT1			LMT5			LHEE			RKNE			RTHI			RANK			RTIP			RTOE			RMT1			RMT5			RHEE			LIFD			*53			
		X1	Y1	Z1	X2	Y2	Z2	X3	Y3	Z3	X4	Y4	Z4	X5	Y5	Z5	X6	Y6	Z6	X7	Y7	Z7	X8	Y8	Z8	X9	Y9	Z9	X10	Y10	Z10	X11	Y11	Z11	X12	Y12	Z12	X13	Y13	Z13	X14	Y14	Z14	X15	Y15	Z15	X16	Y16	Z16	X17	Y17	Z17	X18	Y18	Z18	X19	Y19	Z19	X20	Y20	Z20	X21	Y21	Z21	X22	Y22	Z22	X23	Y23	Z23	X24	Y24	Z24	X25	Y25	Z25	X26	Y26	Z26	X27	Y27	Z27	X28	Y28	Z28	X29	Y29	Z29	X30	Y30	Z30	X31	Y31	Z31	X32	Y32	Z32	X33	Y33	Z33	X34	Y34	Z34	X35	Y35	Z35	X36	Y36	Z36	X37	Y37	Z37	X38	Y38	Z38	X39	Y39	Z39	X40	Y40	Z40	X41	Y41	Z41	X42	Y42	Z42	X43	Y43	Z43	X44	Y44	Z44	X45	Y45	Z45	X46	Y46	Z46	X47	Y47	Z47	X48	Y48	Z48	X49	Y49	Z49	X50	Y50	Z50	X51	Y51	Z51	X52	Y52	Z52	X53	Y53	Z53	X54	Y54	Z54	

221	2.2	-436.96630859375	1009.425537109375	307.2860412597656	-438.2149963378906	1009.244567871094	173.675537109375	-429.4086303710938	1108.452270507812	239.9560546875	-189.5821228027344	1291.45263671875	225.5507202148438	-433.2922973632812	1233.689697265625	242.9450988769531	-376.7841491699219	1505.171630859375	262.1193542480469	-206.4095611572266	1402.828125	229.9590911865234	-441.2786560058594	1379.34619140625	351.4407653808594	-420.9979553222656	1456.668090820312	174.3310546875	-331.3019409179688	1483.760864257812	84.25190734863281	-364.6807250976562	1365.512451171875	-0.002310537034645677	-381.5101928710938	1148.87744140625	-38.97127914428711	-456.4697875976562	1144.631469726562	29.0790843963623	-287.1095886230469	903.5616455078125	-23.81121444702148	-348.4862365722656	883.4476318359375	-84.25128173828125	-363.8533020019531	1063.0126953125	-54.68469619750977	-337.817626953125	824.0863037109375	-81.02344512939453	-276.6463623046875	827.4278564453125	-50.29596710205078	-302.9439697265625	1462.472534179688	407.5061645507812	-312.8987426757812	1399.068969726562	477.5917053222656	-298.6222229003906	1111.700317382812	528.3151245117188	-354.0640563964844	1089.767822265625	507.1139831542969	-150.8265991210938	902.7910766601562	482.1669006347656	-186.9675445556641	880.754150390625	552.000732421875	-282.6055297851562	1057.422119140625	536.6099243164062	-119.5607757568359	733.0568237304688	491.0246887207031	-110.6531066894531	816.138671875	497.9937438964844	-162.0316162109375	809.0028076171875	551.0018920898438	-297.1197814941406	1681.454711914062	316.5826721191406	-135.5573577880859	1703.338745117188	187.991455078125	-158.3828277587891	1697.53271484375	330.2553405761719	-264.0733337402344	1686.212280273438	154.2826690673828	-307.4820861816406	937.0008544921875	41.14911270141602	-310.8840026855469	937.510498046875	427.7384338378906	-224.2522735595703	969.1554565429688	368.9466552734375	-231.6945953369141	965.247314453125	93.385498046875	-148.2681427001953	510.5850830078125	66.67105865478516	-199.9014434814453	674.6697998046875	43.24702072143555	-440.7233276367188	118.2009353637695	63.76718902587891	-316.4212341308594	313.005615234375	60.34113311767578	-241.3193206787109	51.35450744628906	85.10108947753906	-301.0533447265625	69.06988525390625	131.0217742919922	-333.2721557617188	75.04694366455078	29.91165924072266	-494.6241760253906	146.3157196044922	126.098747253418	-275.0302124023438	493.224853515625	353.5776977539062	-267.6948547363281	782.7355346679688	414.827880859375	-401.629150390625	37.04335021972656	306.8320922851562	-285.1166687011719	348.9414672851562	330.1661987304688	-180.0495452880859	39.78167343139648	272.5471801757812	-242.5599365234375	41.5412712097168	230.3962707519531	-269.4825439453125	37.66481399536133	333.4604797363281	-454.69287109375	34.8281135559082	248.6433258056641	-293.151123046875	733.8474731445312	-34.03871154785156	nan	nan	nan	
222	2.21	-431.4212646484375	1009.347717285156	308.0912475585938	-432.758544921875	1009.257934570312	174.4597625732422	-423.7617797851562	1108.5517578125	240.9664916992188	-183.7152557373047	1291.359008789062	226.6215515136719	-427.4229125976562	1233.845947265625	244.1536712646484	-370.5978698730469	1505.23388671875	263.6273803710938	-200.3998870849609	1402.777099609375	231.0291595458984	-434.9427185058594	1379.453735351562	353.1308898925781	-415.0782165527344	1456.744384765625	175.9348907470703	-325.6207885742188	1483.747436523438	85.63514709472656	-359.2030029296875	1365.4140625	1.543710470199585	-376.3291320800781	1148.692016601562	-37.16670989990234	-450.9327392578125	1144.608032226562	31.12885284423828	-282.4737854003906	903.0658569335938	-22.08791351318359	-344.0607299804688	883.1337280273438	-82.36380004882812	-358.8539123535156	1062.743041992188	-52.88730239868164	-333.6250305175781	823.6793212890625	-79.14728546142578	-272.3943481445312	826.8462524414062	-48.55854797363281	-296.3811950683594	1462.493286132812	408.8128356933594	-306.1137390136719	1399.100952148438	478.8443908691406	-290.8893737792969	1111.8125	529.7918701171875	-346.4038391113281	1089.693603515625	508.9198608398438	-142.2365112304688	903.8842163085938	482.8217468261719	-177.9134216308594	881.5126953125	552.7586669921875	-274.4667663574219	1057.6630859375	537.9613647460938	-109.7522430419922	734.3450317382812	491.3245544433594	-101.3930969238281	817.4532470703125	498.3644409179688	-152.4860229492188	809.924072265625	551.5503540039062	-290.734619140625	1681.4326171875	317.8161926269531	-129.5419616699219	1703.259033203125	188.7965087890625	-151.9877014160156	1697.54345703125	331.1062622070312	-258.1326293945312	1686.065673828125	155.4467315673828	-301.8328857421875	937.4082641601562	42.02467727661133	-305.6097106933594	937.3121337890625	428.56982421875	-218.7683563232422	968.8684692382812	369.9702758789062	-226.0959930419922	965.5980224609375	94.42807006835938	-137.3281860351562	512.9652099609375	69.20233154296875	-191.2440338134766	676.2177734375	44.71588897705078	-414.975341796875	109.9205322265625	66.49356079101562	-298.6250915527344	309.3875427246094	62.83917236328125	-212.8544006347656	51.72797393798828	87.98896026611328	-273.5154113769531	66.74850463867188	133.8095703125	-305.8333740234375	71.27132415771484	32.71902847290039	-470.0324096679688	135.8088836669922	128.793701171875	-273.9266052246094	492.8712158203125	354.3392028808594	-263.4136047363281	782.32373046875	415.3617248535156	-401.5635375976562	37.10920715332031	306.7602844238281	-284.7431945800781	348.8204345703125	330.6555480957031	-180.0328674316406	39.76163482666016	272.6271362304688	-242.5106048583984	41.62007904052734	230.5180358886719	-269.4246826171875	37.57954406738281	333.5929565429688	-454.6319580078125	35.04219818115234	248.6153717041016	-289.1582641601562	733.34765625	-32.16762161254883	nan	nan	nan	
223	2.22	-425.8484802246094	1009.231201171875	308.8849792480469	-427.30859375	1009.221435546875	175.2326507568359	-418.1489562988281	1108.650146484375	241.9560546875	-177.8461761474609	1291.2060546875	227.6410064697266	-421.5205688476562	1233.962646484375	245.3077697753906	-364.3876647949219	1505.251220703125	265.0572814941406	-194.3684997558594	1402.660278320312	232.0638885498047	-428.6208190917969	1379.518432617188	354.7077941894531	-409.0895690917969	1456.773803710938	177.4584197998047	-319.8834228515625	1483.706176757812	86.95604705810547	-353.620849609375	1365.270629882812	3.019665956497192	-370.9333190917969	1148.454345703125	-35.354736328125	-445.2887573242188	1144.537963867188	33.11413955688477	-277.7692565917969	902.4772338867188	-20.2974681854248	-339.5438537597656	882.7418823242188	-80.42943572998047	-353.7252197265625	1062.397216796875	-51.08346939086914	-329.3824157714844	823.194091796875	-77.22059631347656	-268.1098937988281	826.1563110351562	-46.73143768310547	-289.8478393554688	1462.44775390625	410.0590209960938	-299.4066772460938	1399.070922851562	480.0236206054688	-283.3527221679688	1111.868041992188	531.23095703125	-338.8955078125	1089.568359375	510.6798095703125	-133.8408966064453	904.919189453125	483.3640441894531	-169.0544586181641	882.1918334960938	553.4246826171875	-266.5130615234375	1057.83251953125	539.2518920898438	-100.1657562255859	735.5628662109375	491.4776916503906	-92.35407257080078	818.7120971679688	498.5979919433594	-143.0868835449219	810.7756958007812	551.9490966796875	-284.3368530273438	1681.3408203125	319.0055847167969	-123.485969543457	1703.125	189.5929718017578	-145.5726013183594	1697.4833984375	331.9488830566406	-252.1498107910156	1685.873168945312	156.5696563720703	-296.2410278320312	937.7556762695312	42.83890914916992	-300.2605285644531	937.0817260742188	429.3442687988281	-213.2473907470703	968.53662109375	370.8980102539062	-220.5236968994141	965.8824462890625	95.36439514160156	-126.7383041381836	515.2904052734375	71.70648956298828	-182.8351745605469	677.6729736328125	46.13497924804688	-388.9276428222656	101.9624710083008	69.25703430175781	-280.7780151367188	305.854736328125	65.34834289550781	-184.4718933105469	52.36807632446289	90.82120513916016	-245.9012908935547	64.7342529296875	136.6032562255859	-278.3133239746094	67.83295440673828	35.52935409545898	-444.900390625	125.5830841064453	131.5623321533203	-272.8692321777344	492.544677734375	355.0728759765625	-259.0556640625	781.9043579101562	415.8067626953125	-401.5148315429688	37.17385101318359	306.6979370117188	-284.432861328125	348.7183837890625	331.1217346191406	-180.0231323242188	39.74740219116211	272.6999816894531	-242.4347381591797	41.71753692626953	230.63330078125	-269.3825073242188	37.49172973632812	333.7146606445312	-454.5773010253906	35.24445724487305	248.5816802978516	-285.1977844238281	732.7512817382812	-30.17017555236816	nan	nan	nan	
224	2.23	-420.2372131347656	1009.079223632812	309.6596069335938	-421.8500366210938	1009.133666992188	175.9909973144531	-412.560302734375	1108.745361328125	242.9170074462891	-171.9680480957031	1290.999267578125	228.6045837402344	-415.5904541015625	1234.034057617188	246.4214019775391	-358.1565551757812	1505.221923828125	266.4089965820312	-188.3057708740234	1402.480346679688	233.0550231933594	-422.3132934570312	1379.541625976562	356.1779479980469	-403.0416564941406	1456.761596679688	178.90087890625	-314.087646484375	1483.637573242188	88.21086883544922	-347.9323120117188	1365.08544921875	4.424924373626709	-365.3355102539062	1148.170654296875	-33.54220199584961	-439.5504455566406	1144.425415039062	35.03469085693359	-272.9945373535156	901.8101196289062	-18.44596481323242	-334.9285888671875	882.2802734375	-78.45426940917969	-348.470947265625	1061.982299804688	-49.27470397949219	-325.0770263671875	822.642822265625	-75.2481689453125	-263.7713623046875	825.377685546875	-44.82023239135742	-283.336181640625	1462.336181640625	411.240478515625	-292.7585144042969	1398.983154296875	481.1380920410156	-276.0077819824219	1111.87060546875	532.628173828125	-331.5294494628906	1089.3916015625	512.3843383789062	-125.6406097412109	905.882080078125	483.7986145019531	-160.4005279541016	882.7853393554688	554.0075073242188	-258.7490539550781	1057.928100585938	540.4884643554688	-90.82112884521484	736.6972045898438	491.5010986328125	-83.54482269287109	819.894287109375	498.7055358886719	-133.8397064208984	811.5567626953125	552.2005615234375	-277.9271545410156	1681.180908203125	320.1501159667969	-117.384895324707	1702.933715820312	190.3816833496094	-139.1342620849609	1697.347290039062	332.7872009277344	-246.1226806640625	1685.639404296875	157.6510925292969	-290.6798706054688	938.0408325195312	43.58131790161133	-294.8389892578125	936.8133544921875	430.0707092285156	-207.6817169189453	968.1602172851562	371.7332458496094	-214.9574584960938	966.0980834960938	96.19544219970703	-116.4881744384766	517.5420532226562	74.16043853759766	-174.6589965820312	679.0215454101562	47.49554443359375	-362.65673828125	94.3968505859375	72.06365966796875	-262.8968200683594	302.4375305175781	67.86083984375	-156.2536773681641	53.24787521362305	93.643310546875	-218.2768096923828	63.05727767944336	139.4269409179688	-250.7716369628906	64.75013732910156	38.35857009887695	-419.3344116210938	115.746467590332	134.4261169433594	-271.8756713867188	492.2536926269531	355.7784118652344	-254.6350555419922	781.4805908203125	416.1742248535156	-401.4798889160156	37.23845291137695	306.6419372558594	-284.1947021484375	348.6419067382812	331.5745544433594	-180.0214691162109	39.73894882202148	272.7689208984375	-242.329833984375	41.84062194824219	230.7519226074219	-269.3598937988281	37.4023551940918	333.8274841308594	-454.5265197753906	35.43238830566406	248.5381164550781	-281.2410888671875	732.076904296875	-28.05932998657227	nan	nan	nan	
